# Blender v2.82 (sub 7) OBJ File: ''
# www.blender.org
mtllib flowerTest1Collider.mtl
o Cube_Cube.001
v -0.278947 0.006488 0.203664
v -0.278947 3.291782 0.203664
v -0.278947 0.006488 -0.346141
v -0.278947 3.291782 -0.346141
v 0.283912 0.006488 0.203664
v 0.283912 3.291782 0.203664
v 0.283912 0.006488 -0.346141
v 0.283912 3.291782 -0.346141
vt 0.375000 0.000000
vt 0.625000 0.000000
vt 0.625000 0.250000
vt 0.375000 0.250000
vt 0.625000 0.500000
vt 0.375000 0.500000
vt 0.625000 0.750000
vt 0.375000 0.750000
vt 0.625000 1.000000
vt 0.375000 1.000000
vt 0.125000 0.500000
vt 0.125000 0.750000
vt 0.875000 0.500000
vt 0.875000 0.750000
vn -1.0000 0.0000 0.0000
vn 0.0000 0.0000 -1.0000
vn 1.0000 0.0000 0.0000
vn 0.0000 0.0000 1.0000
vn 0.0000 -1.0000 0.0000
vn 0.0000 1.0000 0.0000
usemtl None
s off
f 1/1/1 2/2/1 4/3/1 3/4/1
f 3/4/2 4/3/2 8/5/2 7/6/2
f 7/6/3 8/5/3 6/7/3 5/8/3
f 5/8/4 6/7/4 2/9/4 1/10/4
f 3/11/5 7/6/5 5/8/5 1/12/5
f 8/5/6 4/13/6 2/14/6 6/7/6
o Cube.001_Cube.002
v 0.139595 3.057060 0.120426
v -0.899040 4.210897 0.604072
v 0.203719 2.963527 -0.399325
v -0.899040 4.210897 -0.554701
v 2.255552 4.043378 0.120426
v 0.536467 5.231238 0.604072
v 2.319676 3.949845 -0.399324
v 0.536467 5.231238 -0.554700
vt 0.375000 0.000000
vt 0.625000 0.000000
vt 0.625000 0.250000
vt 0.375000 0.250000
vt 0.625000 0.500000
vt 0.375000 0.500000
vt 0.625000 0.750000
vt 0.375000 0.750000
vt 0.625000 1.000000
vt 0.375000 1.000000
vt 0.125000 0.500000
vt 0.125000 0.750000
vt 0.875000 0.500000
vt 0.875000 0.750000
vn -0.7457 -0.6662 0.0086
vn 0.0421 -0.0744 -0.9963
vn 0.5746 0.8181 -0.0236
vn 0.1348 -0.2385 0.9617
vn 0.4130 -0.8861 0.2104
vn -0.5793 0.8151 0.0000
usemtl None
s off
f 9/15/7 10/16/7 12/17/7 11/18/7
f 11/18/8 12/17/8 16/19/8 15/20/8
f 15/20/9 16/19/9 14/21/9 13/22/9
f 13/22/10 14/21/10 10/23/10 9/24/10
f 11/25/11 15/20/11 13/22/11 9/26/11
f 16/19/12 12/27/12 10/28/12 14/21/12
