# Blender v2.82 (sub 7) OBJ File: ''
# www.blender.org
mtllib grass.mtl
o Plane
v -1.298093 -0.114860 0.288883
v -0.699946 -0.109657 -0.124063
v -1.478672 -0.111922 -0.545361
v -1.293543 1.318161 0.223576
v -0.809487 1.392721 -0.111567
v -1.442256 1.339130 -0.456956
v -1.613450 2.987597 0.299580
v -1.286804 3.148535 0.067678
v -1.728578 3.030985 -0.192235
v -2.519584 4.988028 0.518334
v -0.416439 -0.081491 0.033955
v -0.691063 -0.086694 -0.639013
v 0.162496 -0.083756 -0.635925
v -0.628263 1.346327 -0.620522
v -0.405081 1.420886 -0.075709
v 0.068327 1.367295 -0.619377
v -0.633678 3.015762 -0.949290
v -0.477464 3.176701 -0.580408
v -0.128612 3.059151 -0.955936
v -0.652409 5.016194 -1.881266
v 1.788315 -0.048144 -0.423032
v 1.086782 -0.053347 -0.232885
v 1.194372 -0.050409 -1.079642
v 1.112824 1.379674 -0.292948
v 1.680867 1.454233 -0.447733
v 1.199264 1.400642 -0.984155
v 0.785868 3.049110 -0.327834
v 1.171102 3.210048 -0.437700
v 0.841120 3.092498 -0.829913
v -0.141388 5.049541 -0.423372
v -0.254519 -0.141933 0.283080
v 0.468247 -0.147136 0.206184
v 0.228198 -0.144199 1.025299
v 0.433041 1.285884 0.261377
v -0.152324 1.360444 0.324451
v 0.238458 1.306853 0.930239
v 0.750376 2.955320 0.347493
v 0.352620 3.116258 0.395101
v 0.616475 2.998708 0.834531
v 1.650884 4.955752 0.588362
v -0.493453 -0.048144 0.686721
v -0.819436 -0.053347 1.336366
v -1.378823 -0.050409 0.691651
v -0.846841 1.379674 1.276913
v -0.583498 1.454233 0.750337
v -1.304392 1.400642 0.751665
v -1.090822 3.049110 1.497346
v -0.915876 3.210048 1.136971
v -1.428201 3.092498 1.121433
v -1.780223 5.049541 2.124767
v -0.788047 -0.048144 2.186847
v -0.522476 -0.053347 1.510255
v 0.093209 -0.050409 2.101445
v -0.489779 1.379674 1.566971
v -0.704158 1.454233 2.115308
v 0.013630 1.400642 2.048447
v -0.266849 3.049110 1.325270
v -0.408307 3.210048 1.700057
v 0.103309 3.092498 1.668953
v 0.362656 5.049541 0.637771
vt 0.000000 0.000000
vt 0.000000 0.000000
vt 0.000000 0.000000
vt 0.000000 0.000000
vt 0.000000 0.000000
vt 0.000000 0.000000
vt 0.000000 0.000000
vt 0.000000 0.000000
vt 0.000000 0.000000
vt 0.000000 0.000000
vt 0.000000 0.000000
vt 0.000000 0.000000
vt 0.000000 0.000000
vt 0.000000 0.000000
vt 0.000000 0.000000
vt 0.000000 0.000000
vt 0.000000 0.000000
vt 0.000000 0.000000
vt 0.000000 0.000000
vt 0.000000 0.000000
vt 0.000000 0.000000
vt 0.000000 0.000000
vt 0.000000 0.000000
vt 0.000000 0.000000
vt 0.000000 0.000000
vt 0.000000 0.000000
vt 0.000000 0.000000
vt 0.000000 0.000000
vt 0.000000 0.000000
vt 0.000000 0.000000
vt 0.000000 0.000000
vt 0.000000 0.000000
vt 0.000000 0.000000
vt 0.000000 0.000000
vt 0.000000 0.000000
vt 0.000000 0.000000
vt 0.000000 0.000000
vt 0.000000 0.000000
vt 0.000000 0.000000
vt 0.000000 0.000000
vt 0.000000 0.000000
vt 0.000000 0.000000
vt 0.000000 0.000000
vt 0.000000 0.000000
vt 0.000000 0.000000
vt 0.000000 0.000000
vt 0.000000 0.000000
vt 0.000000 0.000000
vt 0.000000 0.000000
vt 0.000000 0.000000
vt 0.000000 0.000000
vt 0.000000 0.000000
vt 0.000000 0.000000
vt 0.000000 0.000000
vt 0.000000 0.000000
vt 0.000000 0.000000
vt 0.000000 0.000000
vt 0.000000 0.000000
vt 0.000000 0.000000
vt 0.000000 0.000000
vn -0.0055 1.0000 0.0047
vn 0.9593 0.1938 -0.2053
vn 0.9771 -0.0122 -0.2126
vn -0.4756 -0.0418 0.8787
vn -0.5665 -0.0351 -0.8233
vn 0.8903 0.4220 -0.1712
vn -0.4538 -0.2120 0.8655
vn -0.5584 -0.0684 -0.8267
vn -0.0034 1.0000 -0.0063
vn -0.3635 -0.4442 0.8188
vn -0.5240 -0.1456 -0.8392
vn -0.0059 0.1938 0.9810
vn -0.0025 -0.0122 0.9999
vn -0.7558 -0.0418 -0.6535
vn 0.9259 -0.0351 -0.3762
vn -0.0243 0.4220 0.9063
vn -0.7477 -0.2120 -0.6293
vn 0.9275 -0.0684 -0.3675
vn -0.7215 -0.4442 -0.5312
vn 0.9322 -0.1456 -0.3313
vn -0.0067 1.0000 0.0026
vn 0.9729 0.1938 0.1260
vn 0.9921 -0.0122 0.1250
vn -0.7411 -0.0418 0.6701
vn -0.2600 -0.0351 -0.9650
vn 0.8965 0.4220 0.1351
vn -0.7162 -0.2120 0.6650
vn -0.2512 -0.0684 -0.9655
vn -0.6155 -0.4442 0.6510
vn -0.2146 -0.1456 -0.9658
vn 0.0070 1.0000 -0.0015
vn -0.9408 0.1938 -0.2781
vn -0.9599 -0.0122 -0.2802
vn 0.8377 -0.0418 -0.5445
vn 0.1042 -0.0351 0.9939
vn -0.8639 0.4220 -0.2751
vn 0.8122 -0.2120 -0.5434
vn 0.0954 -0.0684 0.9931
vn 0.7107 -0.4442 -0.5455
vn 0.0593 -0.1456 0.9876
vn -0.0025 1.0000 0.0067
vn 0.7425 0.1938 -0.6412
vn 0.7546 -0.0122 -0.6561
vn 0.0053 -0.0418 0.9991
vn -0.8926 -0.0351 -0.4496
vn 0.6984 0.4220 -0.5781
vn 0.0182 -0.2120 0.9771
vn -0.8871 -0.0684 -0.4565
vn 0.0749 -0.4442 0.8928
vn -0.8629 -0.1456 -0.4839
vn 0.0019 1.0000 -0.0069
vn -0.6812 0.1938 0.7060
vn -0.6918 -0.0122 0.7220
vn -0.0962 -0.0418 -0.9945
vn 0.9297 -0.0351 0.3666
vn -0.6429 0.4220 0.6392
vn -0.1069 -0.2120 -0.9714
vn 0.9249 -0.0684 0.3740
vn -0.1557 -0.4442 -0.8823
vn 0.9033 -0.1456 0.4035
usemtl Grass
s off
f 2/1/1 3/2/1 1/3/1
f 4/4/2 6/5/2 9/6/2 7/7/2
f 1/3/3 3/2/3 6/5/3 4/4/3
f 3/2/4 2/1/4 5/8/4 6/5/4
f 2/1/5 1/3/5 4/4/5 5/8/5
f 7/7/6 9/6/6 10/9/6
f 6/5/7 5/8/7 8/10/7 9/6/7
f 5/8/8 4/4/8 7/7/8 8/10/8
f 11/11/9 13/12/9 12/13/9
f 9/6/10 8/10/10 10/9/10
f 8/10/11 7/7/11 10/9/11
f 14/14/12 16/15/12 19/16/12 17/17/12
f 12/13/13 13/12/13 16/15/13 14/14/13
f 13/12/14 11/11/14 15/18/14 16/15/14
f 11/11/15 12/13/15 14/14/15 15/18/15
f 17/17/16 19/16/16 20/19/16
f 16/15/17 15/18/17 18/20/17 19/16/17
f 15/18/18 14/14/18 17/17/18 18/20/18
f 19/16/19 18/20/19 20/19/19
f 18/20/20 17/17/20 20/19/20
f 21/21/21 23/22/21 22/23/21
f 24/24/22 26/25/22 29/26/22 27/27/22
f 22/23/23 23/22/23 26/25/23 24/24/23
f 23/22/24 21/21/24 25/28/24 26/25/24
f 21/21/25 22/23/25 24/24/25 25/28/25
f 27/27/26 29/26/26 30/29/26
f 26/25/27 25/28/27 28/30/27 29/26/27
f 25/28/28 24/24/28 27/27/28 28/30/28
f 29/26/29 28/30/29 30/29/29
f 28/30/30 27/27/30 30/29/30
f 31/31/31 33/32/31 32/33/31
f 34/34/32 36/35/32 39/36/32 37/37/32
f 32/33/33 33/32/33 36/35/33 34/34/33
f 33/32/34 31/31/34 35/38/34 36/35/34
f 31/31/35 32/33/35 34/34/35 35/38/35
f 37/37/36 39/36/36 40/39/36
f 36/35/37 35/38/37 38/40/37 39/36/37
f 35/38/38 34/34/38 37/37/38 38/40/38
f 39/36/39 38/40/39 40/39/39
f 38/40/40 37/37/40 40/39/40
f 41/41/41 43/42/41 42/43/41
f 44/44/42 46/45/42 49/46/42 47/47/42
f 42/43/43 43/42/43 46/45/43 44/44/43
f 43/42/44 41/41/44 45/48/44 46/45/44
f 41/41/45 42/43/45 44/44/45 45/48/45
f 47/47/46 49/46/46 50/49/46
f 46/45/47 45/48/47 48/50/47 49/46/47
f 45/48/48 44/44/48 47/47/48 48/50/48
f 49/46/49 48/50/49 50/49/49
f 48/50/50 47/47/50 50/49/50
f 51/51/51 53/52/51 52/53/51
f 54/54/52 56/55/52 59/56/52 57/57/52
f 52/53/53 53/52/53 56/55/53 54/54/53
f 53/52/54 51/51/54 55/58/54 56/55/54
f 51/51/55 52/53/55 54/54/55 55/58/55
f 57/57/56 59/56/56 60/59/56
f 56/55/57 55/58/57 58/60/57 59/56/57
f 55/58/58 54/54/58 57/57/58 58/60/58
f 59/56/59 58/60/59 60/59/59
f 58/60/60 57/57/60 60/59/60
