# Blender v2.82 (sub 7) OBJ File: ''
# www.blender.org
mtllib bendyTreeCollider.mtl
o Cylinder
v -0.127140 -0.044642 -0.028141
v -0.127140 1.372239 -1.021945
v 0.102948 1.292759 -1.128386
v 0.102948 -0.124123 -0.134582
v 0.102948 1.451720 -0.915504
v 0.102948 0.034838 0.078300
vt 1.000000 0.500000
vt 1.000000 1.000000
vt 0.666667 1.000000
vt 0.666667 0.500000
vt 0.333333 1.000000
vt 0.333333 0.500000
vt 0.457846 0.130000
vt 0.250000 0.490000
vt 0.042154 0.130000
vt -0.000000 1.000000
vt -0.000000 0.500000
vt 0.750000 0.490000
vt 0.957846 0.130000
vt 0.542154 0.130000
vn -0.4998 -0.4974 -0.7091
vn 1.0000 0.0000 0.0000
vn -0.0000 0.8013 -0.5983
vn -0.4998 0.4974 0.7091
vn -0.0000 -0.8013 0.5983
usemtl None
s 1
f 1/1/1 2/2/1 3/3/1 4/4/1
f 4/4/2 3/3/2 5/5/2 6/6/2
f 3/7/3 2/8/3 5/9/3
f 6/6/4 5/5/4 2/10/4 1/11/4
f 1/12/5 4/13/5 6/14/5
o Cylinder.001
v 0.012421 1.438491 -1.012020
v 0.166970 2.267707 -1.511703
v 0.202978 2.203045 -1.584724
v 0.048429 1.373829 -1.085042
v 0.268475 2.245638 -1.516125
v 0.113926 1.416421 -1.016442
vt 1.000000 0.500000
vt 1.000000 0.500000
vt 1.000000 0.500000
vt 1.000000 0.500000
vt 1.000000 0.500000
vt 1.000000 0.500000
vn -0.9169 -0.0662 -0.3935
vn 0.7715 -0.4277 -0.4711
vn 0.1416 0.7747 -0.6162
vn 0.1442 0.4909 0.8592
vn -0.1416 -0.7747 0.6162
usemtl None
s 1
f 7/15/6 8/16/6 9/17/6 10/18/6
f 10/18/7 9/17/7 11/19/7 12/20/7
f 9/17/8 8/16/8 11/19/8
f 12/20/9 11/19/9 8/16/9 7/15/9
f 7/15/10 10/18/10 12/20/10
o Cylinder.002
v -0.090358 1.380957 -0.931304
v -0.363990 2.322384 -0.934256
v -0.318240 2.323103 -1.027617
v -0.044607 1.381676 -1.024665
v -0.264394 2.350876 -0.943123
v 0.009239 1.409449 -0.940172
vt 1.000000 0.500000
vt 1.000000 0.500000
vt 1.000000 0.500000
vt 1.000000 0.500000
vt 1.000000 0.500000
vt 1.000000 0.500000
vn -0.8679 -0.2536 -0.4272
vn 0.7859 0.2266 -0.5753
vn -0.2835 0.9499 -0.1316
vn 0.0811 0.0267 0.9964
vn 0.2835 -0.9499 0.1316
usemtl None
s 1
f 13/21/11 14/22/11 15/23/11 16/24/11
f 16/24/12 15/23/12 17/25/12 18/26/12
f 15/23/13 14/22/13 17/25/13
f 18/26/14 17/25/14 14/22/14 13/21/14
f 13/21/15 16/24/15 18/26/15
o Cylinder.003
v -0.371715 2.305978 -0.940347
v -0.593789 2.841755 -1.030296
v -0.548039 2.842474 -1.123657
v -0.325965 2.306697 -1.033708
v -0.494193 2.870247 -1.039163
v -0.272119 2.334470 -0.949214
vt 1.000000 0.500000
vt 1.000000 0.500000
vt 1.000000 0.500000
vt 1.000000 0.500000
vt 1.000000 0.500000
vt 1.000000 0.500000
vn -0.8189 -0.4073 -0.4044
vn 0.7851 0.2288 -0.5755
vn -0.2835 0.9499 -0.1316
vn 0.0360 0.1800 0.9830
vn 0.2835 -0.9499 0.1316
usemtl None
s 1
f 19/27/16 20/28/16 21/29/16 22/30/16
f 22/30/17 21/29/17 23/31/17 24/32/17
f 21/29/18 20/28/18 23/31/18
f 24/32/19 23/31/19 20/28/19 19/27/19
f 19/27/20 22/30/20 24/32/20
o Cylinder.004
v 0.139947 2.244737 -1.464932
v -0.005418 2.815231 -2.212694
v 0.032358 2.735819 -2.268161
v 0.177723 2.165325 -1.520399
v 0.095590 2.812308 -2.237161
v 0.240955 2.241814 -1.489399
vt 1.000000 0.500000
vt 1.000000 0.500000
vt 1.000000 0.500000
vt 1.000000 0.500000
vt 1.000000 0.500000
vt 1.000000 0.500000
vn -0.9240 -0.3686 -0.1016
vn 0.7617 -0.4351 -0.4801
vn -0.1902 0.4997 -0.8450
vn 0.1632 0.7994 0.5782
vn 0.1902 -0.4997 0.8450
usemtl None
s 1
f 25/33/21 26/34/21 27/35/21 28/36/21
f 28/36/22 27/35/22 29/37/22 30/38/22
f 27/35/23 26/34/23 29/37/23
f 30/38/24 29/37/24 26/34/24 25/33/24
f 25/33/25 28/36/25 30/38/25
o Cylinder.005
v 0.143741 2.225780 -1.463791
v 0.501347 2.752098 -1.669664
v 0.518916 2.687868 -1.749513
v 0.161310 2.161551 -1.543640
v 0.583715 2.688669 -1.668209
v 0.226109 2.162351 -1.462336
vt 1.000000 0.500000
vt 1.000000 0.500000
vt 1.000000 0.500000
vt 1.000000 0.500000
vt 1.000000 0.500000
vt 1.000000 0.500000
vn -0.8048 0.3633 -0.4693
vn 0.6208 -0.6130 -0.4887
vn 0.5510 0.7053 -0.4461
vn 0.1771 0.2518 0.9514
vn -0.5510 -0.7053 0.4461
usemtl None
s 1
f 31/39/26 32/40/26 33/41/26 34/42/26
f 34/42/27 33/41/27 35/43/27 36/44/27
f 33/41/28 32/40/28 35/43/28
f 36/44/29 35/43/29 32/40/29 31/39/29
f 31/39/30 34/42/30 36/44/30
o Cylinder.006
v 0.460230 2.762668 -1.700105
v 0.500512 3.004730 -1.922525
v 0.519474 2.940447 -1.966838
v 0.479191 2.698385 -1.744418
v 0.577111 2.981222 -1.928487
v 0.536829 2.739160 -1.706067
vt 1.000000 0.500000
vt 1.000000 0.500000
vt 1.000000 0.500000
vt 1.000000 0.500000
vt 1.000000 0.500000
vt 1.000000 0.500000
vn -0.9571 -0.0930 -0.2746
vn 0.6963 -0.5450 -0.4670
vn 0.1178 0.5869 -0.8010
vn 0.2510 0.6320 0.7332
vn -0.1178 -0.5869 0.8010
usemtl None
s 1
f 37/45/31 38/46/31 39/47/31 40/48/31
f 40/48/32 39/47/32 41/49/32 42/50/32
f 39/47/33 38/46/33 41/49/33
f 42/50/34 41/49/34 38/46/34 37/45/34
f 37/45/35 40/48/35 42/50/35
o Cylinder.007
v 0.474600 2.712395 -1.598365
v 0.650244 3.009524 -1.378148
v 0.678040 3.027157 -1.451442
v 0.502396 2.730028 -1.671659
v 0.721251 2.980634 -1.402209
v 0.545607 2.683505 -1.622426
vt 1.000000 0.500000
vt 1.000000 0.500000
vt 1.000000 0.500000
vt 1.000000 0.500000
vt 1.000000 0.500000
vt 1.000000 0.500000
vn -0.7935 0.5873 -0.1596
vn 0.7637 0.0267 -0.6451
vn 0.4546 0.8113 0.3676
vn 0.0240 -0.6044 0.7963
vn -0.4546 -0.8113 -0.3676
usemtl None
s 1
f 43/51/36 44/52/36 45/53/36 46/54/36
f 46/54/37 45/53/37 47/55/37 48/56/37
f 45/53/38 44/52/38 47/55/38
f 48/56/39 47/55/39 44/52/39 43/51/39
f 43/51/40 46/54/40 48/56/40
o Cylinder.008
v 0.073102 2.563527 -1.864055
v -0.003726 2.974557 -1.564270
v -0.002765 2.993378 -1.642375
v 0.074064 2.582348 -1.942160
v 0.065510 2.994138 -1.600026
v 0.142338 2.583108 -1.899810
vt 1.000000 0.500000
vt 1.000000 0.500000
vt 1.000000 0.500000
vt 1.000000 0.500000
vt 1.000000 0.500000
vt 1.000000 0.500000
vn -0.9876 -0.1495 -0.0482
vn 0.4231 0.5842 -0.6926
vn -0.1532 0.9611 0.2297
vn 0.5071 -0.4440 0.7387
vn 0.1532 -0.9611 -0.2297
usemtl None
s 1
f 49/57/41 50/58/41 51/59/41 52/60/41
f 52/60/42 51/59/42 53/61/42 54/62/42
f 51/59/43 50/58/43 53/61/43
f 54/62/44 53/61/44 50/58/44 49/57/44
f 49/57/45 52/60/45 54/62/45
o Cylinder.009_Cylinder.010
v -0.260444 2.200897 -0.927694
v 0.176200 2.673607 -0.082492
v 0.259539 2.659786 -0.128864
v -0.177104 2.187076 -0.974066
v 0.225531 2.591833 -0.069597
v -0.211113 2.119123 -0.914799
vt 1.000000 0.500000
vt 1.000000 0.500000
vt 1.000000 0.500000
vt 1.000000 0.500000
vt 1.000000 0.500000
vt 1.000000 0.500000
vn -0.1004 0.8896 -0.4456
vn 0.8351 -0.5338 -0.1329
vn 0.4937 0.4181 0.7626
vn -0.7360 -0.3529 0.5776
vn -0.4936 -0.4181 -0.7626
usemtl None
s 1
f 55/63/46 56/64/46 57/65/46 58/66/46
f 58/66/47 57/65/47 59/67/47 60/68/47
f 57/65/48 56/64/48 59/67/48
f 60/68/49 59/67/49 56/64/49 55/63/49
f 55/63/50 58/66/50 60/68/50
o Cylinder.010_Cylinder.011
v -0.072893 2.298647 -0.693148
v -0.340594 2.431774 -0.501568
v -0.284775 2.470477 -0.433207
v -0.017074 2.337350 -0.624787
v -0.335225 2.390492 -0.414655
v -0.067523 2.257365 -0.606235
vt 1.000000 0.500000
vt 1.000000 0.500000
vt 1.000000 0.500000
vt 1.000000 0.500000
vt 1.000000 0.500000
vt 1.000000 0.500000
vn 0.0495 0.8513 -0.5224
vn 0.5293 -0.1398 0.8368
vn -0.7691 0.5576 0.3123
vn -0.5937 -0.7405 -0.3150
vn 0.7691 -0.5576 -0.3124
usemtl None
s 1
f 61/69/51 62/70/51 63/71/51 64/72/51
f 64/72/52 63/71/52 65/73/52 66/74/52
f 63/71/53 62/70/53 65/73/53
f 66/74/54 65/73/54 62/70/54 61/69/54
f 61/69/55 64/72/55 66/74/55
o Cylinder.011_Cylinder.012
v -0.328976 2.384477 -0.550758
v -0.702346 2.671885 -0.578243
v -0.667173 2.737767 -0.517339
v -0.293804 2.450359 -0.489853
v -0.736937 2.677867 -0.488496
v -0.363567 2.390458 -0.461011
vt 1.000000 0.500000
vt 1.000000 0.500000
vt 1.000000 0.500000
vt 1.000000 0.500000
vt 1.000000 0.500000
vt 1.000000 0.500000
vn 0.4264 0.4807 -0.7662
vn 0.1484 0.2834 0.9475
vn -0.6899 0.6544 -0.3095
vn -0.5923 -0.7863 -0.1759
vn 0.6899 -0.6544 0.3095
usemtl None
s 1
f 67/75/56 68/76/56 69/77/56 70/78/56
f 70/78/57 69/77/57 71/79/57 72/80/57
f 69/77/58 68/76/58 71/79/58
f 72/80/59 71/79/59 68/76/59 67/75/59
f 67/75/60 70/78/60 72/80/60
o Cylinder.012_Cylinder.013
v -0.345294 2.413914 -0.502321
v -0.594151 2.349861 -0.106428
v -0.522820 2.375659 -0.046987
v -0.273963 2.439712 -0.442880
v -0.546354 2.282696 -0.056516
v -0.297498 2.346749 -0.452409
vt 1.000000 0.500000
vt 1.000000 0.500000
vt 1.000000 0.500000
vt 1.000000 0.500000
vt 1.000000 0.500000
vt 1.000000 0.500000
vn -0.3095 0.9500 -0.0409
vn 0.8357 -0.2611 0.4831
vn -0.6565 0.0894 0.7490
vn -0.5338 -0.7152 -0.4512
vn 0.6565 -0.0894 -0.7490
usemtl None
s 1
f 73/81/61 74/82/61 75/83/61 76/84/61
f 76/84/62 75/83/62 77/85/62 78/86/62
f 75/83/63 74/82/63 77/85/63
f 78/86/64 77/85/64 74/82/64 73/81/64
f 73/81/65 76/84/65 78/86/65
o Icosphere.001_Icosphere
v 0.131220 2.702937 -1.085456
v 0.718873 2.857559 -2.600017
v 1.282898 2.810640 -0.912891
v -0.303242 2.762448 -2.342531
v 0.131219 2.262038 0.694021
v -1.020459 2.810640 -0.912891
v 0.131219 3.154985 -1.973374
v 1.282898 3.281954 -1.421975
v 0.842990 2.957423 0.226182
v -0.580551 2.957423 0.226182
v -1.020459 3.281954 -1.421975
v 0.131219 3.407486 -1.186463
vt 0.818181 0.000000
vt 0.727272 0.157461
vt 0.909090 0.157461
vt 0.636363 0.000000
vt 0.545454 0.157461
vt 0.090909 0.000000
vt 0.000000 0.157461
vt 0.181818 0.157461
vt 0.272727 0.000000
vt 0.363636 0.157461
vt 0.454545 0.000000
vt 0.636363 0.314921
vt 0.818181 0.314921
vt 0.090909 0.314921
vt 0.272727 0.314921
vt 0.454545 0.314921
vt 1.000000 0.314921
vt 0.727272 0.472382
vt 0.909090 0.472382
vt 0.181818 0.472382
vt 0.363636 0.472382
vt 0.545454 0.472382
vn 0.1021 -0.9929 -0.0617
vn 0.0742 -0.9946 -0.0727
vn 0.1258 -0.9629 -0.2386
vn -0.1258 -0.9629 -0.2386
vn -0.0952 -0.9954 -0.0142
vn -0.2188 0.7860 -0.5782
vn 0.8918 -0.3320 -0.3074
vn 0.7622 -0.5357 0.3634
vn -0.7622 -0.5357 0.3634
vn -0.8144 -0.4258 -0.3942
vn 0.0748 0.9262 -0.3695
vn 0.8948 0.3276 0.3033
vn 0.0000 0.5582 0.8297
vn -0.8948 0.3276 0.3033
vn -0.1988 0.7791 -0.5945
vn 0.0413 0.9514 -0.3053
vn 0.1518 0.9613 0.2298
vn 0.0000 0.9528 0.3036
vn -0.1518 0.9613 0.2298
vn -0.0413 0.9514 -0.3053
usemtl None
s 1
f 79/87/66 80/88/66 81/89/66
f 80/88/67 79/90/67 82/91/67
f 79/92/68 81/93/68 83/94/68
f 79/95/69 83/94/69 84/96/69
f 79/97/70 84/96/70 82/91/70
f 80/88/71 82/91/71 85/98/71
f 81/89/72 80/88/72 86/99/72
f 83/94/73 81/93/73 87/100/73
f 84/96/74 83/94/74 88/101/74
f 82/91/75 84/96/75 89/102/75
f 80/88/76 85/98/76 86/99/76
f 81/89/77 86/99/77 87/103/77
f 83/94/78 87/100/78 88/101/78
f 84/96/79 88/101/79 89/102/79
f 82/91/80 89/102/80 85/98/80
f 86/99/81 85/98/81 90/104/81
f 87/103/82 86/99/82 90/105/82
f 88/101/83 87/100/83 90/106/83
f 89/102/84 88/101/84 90/107/84
f 85/98/85 89/102/85 90/108/85
