# Blender v2.82 (sub 7) OBJ File: ''
# www.blender.org
mtllib rock.mtl
o Cube_Cube.001
v -1.587538 -0.554959 1.399083
v -1.778219 -0.941972 -0.344833
v -1.356745 -0.839017 -1.309672
v 0.072532 1.157544 -1.998469
v 1.293588 -0.847030 1.191210
v 0.631522 1.864460 0.797230
v 1.604903 1.272356 1.466607
v 0.413184 -0.914405 -1.750022
v 1.595517 -0.895161 -1.580868
v 1.728928 1.334171 -0.579873
v -1.134688 -1.289128 -0.008184
v -2.067483 -0.308710 0.337894
v -0.997060 0.233624 -2.135114
v -0.072309 1.601846 -1.424937
v 1.420641 -1.321980 0.152210
v 2.102103 -0.395752 -0.598283
v 0.764314 1.858052 -0.248367
v 1.526073 -0.182293 1.451357
v -0.170172 0.169409 2.185277
v 1.513912 0.175992 1.381407
v -0.505083 1.512478 -0.148627
v -1.138049 -0.989537 1.426071
v 1.603276 -0.970538 -1.429695
v -1.342876 0.235402 1.450447
v -1.304862 1.558480 1.052736
v -1.939985 1.255791 0.205643
v -1.715979 1.284353 -0.963472
v -1.609303 0.683818 -1.524160
v -1.566580 -0.059306 -1.673833
v -1.877310 -0.548506 -0.896316
v 1.384803 1.112105 -1.320779
v 1.455878 0.232370 -1.304301
v 0.583614 0.969120 -1.909663
v 1.934834 -0.800939 0.340986
v -0.056151 -1.103991 1.562417
v -0.646522 -0.801180 2.099230
v -0.598151 1.687873 1.436514
v 0.094672 1.515841 2.041352
v -1.386696 1.243843 1.412201
v -0.265786 -1.445451 -0.038008
v 0.513576 -1.494472 0.521319
vt 0.508252 0.959355
vt 0.437800 0.895561
vt 0.501636 0.883920
vt 0.446001 0.579715
vt 0.616982 0.694122
vt 0.534188 0.725023
vt 0.615748 0.587684
vt 0.692425 0.606655
vt 0.775522 0.618067
vt 0.707631 0.671186
vt 0.458443 0.062741
vt 0.506515 0.064719
vt 0.460667 0.102076
vt 0.508198 0.316067
vt 0.563178 0.358536
vt 0.561880 0.416783
vt 0.435436 0.372880
vt 0.152978 0.709953
vt 0.185623 0.711186
vt 0.215888 0.736851
vt 0.658967 0.721175
vt 0.662800 0.706727
vt 0.747998 0.722731
vt 0.330339 0.530110
vt 0.341245 0.543506
vt 0.270141 0.524664
vt 0.186622 0.625879
vt 0.133574 0.666079
vt 0.129981 0.653152
vt 0.437989 0.973831
vt 0.857322 0.646902
vt 0.834405 0.694419
vt 0.484984 0.258967
vt 0.434205 0.271151
vt 0.439942 0.184343
vt 0.847562 0.572412
vt 0.750438 0.547558
vt 0.749033 0.514709
vt 0.661942 0.541355
vt 0.403892 0.547210
vt 0.411598 0.650327
vt 0.606204 0.551960
vt 0.510171 0.512003
vt 0.470405 0.747470
vt 0.248036 0.714868
vt 0.339368 0.704464
vt 0.286150 0.655505
vt 0.820726 0.705060
vt 0.788840 0.706588
vt 0.815567 0.733670
vt 0.799295 0.749981
vt 0.788213 0.748469
vt 0.237610 0.623952
vt 0.168137 0.543747
vt 0.351504 0.634975
vt 0.553146 0.116346
vt 0.434302 0.146839
vt 0.436077 0.471746
vt 0.832168 0.524631
vt 0.372081 0.556851
vt 0.146657 0.607425
vt 0.131048 0.587225
vt 0.584936 0.957354
vt 0.550215 0.991093
vt 0.848873 0.690928
vt 0.546793 0.244150
vt 0.565696 0.183362
vt 0.565696 0.251541
vt 0.718822 0.510065
vt 0.566154 0.476085
vt 0.389935 0.697818
vt 0.656211 0.693539
vt 0.434304 0.828614
vt 0.434464 0.788016
vt 0.819866 0.709692
vt 0.563130 0.836984
vt 0.565696 0.147438
vt 0.434304 1.000000
vt 0.434304 0.996291
vt 0.426481 0.729356
vn -0.5152 0.1785 0.8383
vn 0.9451 -0.1026 0.3104
vn 0.9756 0.2097 0.0655
vn -0.2654 0.9633 -0.0396
vn -0.8630 0.2382 0.4456
vn 0.1579 -0.0368 -0.9868
vn 0.1858 -0.0997 -0.9775
vn -0.5823 -0.5660 0.5836
vn 0.3396 -0.1009 0.9351
vn 0.0786 -0.8905 -0.4481
vn -0.6900 -0.7086 0.1476
vn -0.5712 0.1241 0.8114
vn -0.2163 0.9595 -0.1807
vn -0.1739 0.9728 -0.1530
vn -0.6958 -0.4491 -0.5606
vn -0.3140 0.7105 -0.6297
vn 0.3033 0.7889 -0.5345
vn 0.8179 -0.5668 -0.0989
vn 0.8976 0.0643 -0.4362
vn 0.9499 0.0907 0.2992
vn -0.1282 -0.9709 0.2025
vn 0.2882 -0.8340 0.4705
vn -0.1607 0.9863 -0.0366
vn 0.0026 0.9626 0.2708
vn -0.5306 0.0091 0.8476
vn -0.1790 -0.9388 -0.2942
vn 0.0817 -0.9648 -0.2500
vn 0.4225 0.1875 0.8867
vn 0.3410 -0.2477 0.9068
vn 0.7998 0.1786 -0.5731
vn 0.9580 0.1583 0.2389
vn -0.2642 0.9642 -0.0221
vn 0.3242 0.8542 -0.4066
vn -0.8569 0.1124 0.5031
vn -0.9358 -0.3441 -0.0773
vn -0.9391 0.2800 -0.1991
vn 0.1425 -0.0964 -0.9851
vn -0.2241 -0.5460 -0.8072
vn -0.3864 0.5561 -0.7358
vn 0.3149 -0.6357 0.7048
vn 0.8799 -0.4057 -0.2474
vn -0.3546 -0.9007 -0.2510
vn -0.5886 -0.7017 0.4015
vn -0.6552 -0.6657 -0.3572
vn -0.9088 -0.0237 0.4165
vn -0.1785 0.9839 -0.0102
vn -0.7359 0.5836 0.3433
vn -0.6595 0.1118 -0.7433
vn -0.9865 -0.0241 -0.1619
vn -0.2608 0.6337 -0.7283
vn 0.3595 0.6682 -0.6514
vn 0.6864 0.2523 -0.6820
vn 0.5882 0.0324 -0.8081
vn 0.8115 0.2320 -0.5363
vn 0.5774 -0.7136 0.3968
vn 0.7225 -0.6879 -0.0694
vn 0.4905 0.8696 0.0560
vn 0.3703 -0.4480 0.8138
vn -0.1649 -0.9600 0.2264
vn -0.1431 -0.9211 0.3622
vn 0.2835 0.8846 0.3702
vn -0.4258 0.7267 0.5391
vn 0.1194 -0.9607 -0.2506
vn -0.1239 -0.9328 -0.3385
vn 0.0120 -0.9764 -0.2155
vn 0.3331 -0.8415 0.4254
vn 0.4307 0.0117 0.9024
vn -0.1883 0.9821 0.0049
vn -0.9704 0.0593 -0.2343
vn -0.9820 -0.0096 -0.1884
vn -0.6921 -0.7068 0.1460
vn -0.3941 -0.4739 -0.7875
vn 0.3167 0.8547 -0.4113
vn 0.4916 0.8690 0.0571
vn 0.7222 -0.4561 0.5200
vn -0.2256 -0.9463 0.2315
vn -0.3926 0.6623 0.6381
vn -0.4121 0.1766 0.8939
usemtl Rock
s off
f 24/1/1 36/2/1 19/3/1
f 16/4/2 7/5/2 20/6/2
f 16/4/3 10/7/3 7/5/3
f 17/8/4 21/9/4 6/10/4
f 1/11/5 24/12/5 12/13/5
f 13/14/6 4/15/6 33/16/6
f 33/16/7 8/17/7 13/14/7
f 1/18/8 22/19/8 36/20/8
f 20/21/9 7/22/9 38/23/9
f 9/24/10 23/25/10 8/26/10
f 11/27/11 1/28/11 12/29/11
f 24/1/12 1/30/12 36/2/12
f 21/9/13 26/31/13 25/32/13
f 6/10/14 21/9/14 25/32/14
f 29/33/15 3/34/15 30/35/15
f 27/36/16 14/37/16 4/38/16
f 14/37/17 31/39/17 4/38/17
f 23/40/18 16/4/18 34/41/18
f 31/42/19 10/7/19 32/43/19
f 18/44/20 34/41/20 20/6/20
f 11/27/21 35/45/21 22/19/21
f 5/46/22 35/45/22 41/47/22
f 6/10/23 25/48/23 37/49/23
f 37/49/24 38/23/24 6/10/24
f 39/50/25 24/51/25 19/52/25
f 40/53/26 11/27/26 3/54/26
f 15/55/27 41/47/27 8/26/27
f 18/44/28 20/6/28 19/3/28
f 36/2/29 18/44/29 19/3/29
f 32/43/30 10/7/30 16/4/30
f 16/4/31 20/6/31 34/41/31
f 17/8/32 14/37/32 21/9/32
f 31/39/33 17/8/33 10/7/33
f 12/13/34 24/12/34 26/56/34
f 2/57/35 12/13/35 30/35/35
f 12/13/36 29/33/36 30/35/36
f 9/58/37 8/17/37 33/16/37
f 3/34/38 13/14/38 8/17/38
f 13/59/39 27/36/39 4/38/39
f 35/45/40 5/46/40 36/20/40
f 16/60/41 23/25/41 9/24/41
f 11/27/42 2/61/42 3/54/42
f 12/29/43 2/61/43 11/27/43
f 2/61/44 30/62/44 3/54/44
f 24/1/45 39/63/45 26/64/45
f 21/9/46 27/36/46 26/31/46
f 39/65/47 25/32/47 26/31/47
f 28/66/48 13/14/48 29/33/48
f 28/66/49 29/33/49 27/67/49
f 13/14/50 28/66/50 27/68/50
f 4/38/51 31/39/51 33/69/51
f 9/58/52 33/16/52 32/43/52
f 32/43/53 33/16/53 31/70/53
f 32/43/54 16/4/54 9/58/54
f 5/71/55 15/55/55 34/41/55
f 15/55/56 23/40/56 34/41/56
f 10/7/57 6/72/57 7/5/57
f 36/73/58 5/74/58 18/44/58
f 11/27/59 40/53/59 35/45/59
f 36/20/60 22/19/60 35/45/60
f 6/10/61 38/23/61 7/22/61
f 37/49/62 25/48/62 39/75/62
f 8/26/63 41/47/63 40/53/63
f 8/26/64 40/53/64 3/54/64
f 23/40/65 15/55/65 8/26/65
f 41/47/66 15/55/66 5/71/66
f 19/3/67 20/6/67 38/76/67
f 21/9/68 14/37/68 27/36/68
f 29/33/69 12/13/69 26/56/69
f 27/77/70 29/33/70 26/56/70
f 11/78/71 22/79/71 1/30/71
f 29/33/72 13/14/72 3/34/72
f 14/37/73 17/8/73 31/39/73
f 10/7/74 17/8/74 6/72/74
f 34/41/75 18/44/75 5/80/75
f 35/45/76 40/53/76 41/47/76
f 38/23/77 37/49/77 39/50/77
f 38/23/78 39/50/78 19/52/78
